<svg width="17" height="18" viewBox="0 0 17 18" fill="none" xmlns="http://www.w3.org/2000/svg">
<path d="M8.81688 17.24C7.18488 17.24 5.77688 17.04 4.59288 16.64C3.40888 16.224 2.49688 15.592 1.85688 14.744C1.21688 13.88 0.896875 12.768 0.896875 11.408V11.264H5.40888V11.768C5.40888 12.12 5.48088 12.4 5.62488 12.608C5.78488 12.8 6.10488 12.936 6.58488 13.016C7.06488 13.096 7.80888 13.136 8.81688 13.136C9.72888 13.136 10.4009 13.112 10.8329 13.064C11.2649 13 11.5369 12.904 11.6489 12.776C11.7769 12.632 11.8409 12.44 11.8409 12.2C11.8409 11.912 11.7289 11.696 11.5049 11.552C11.2969 11.408 10.8649 11.296 10.2089 11.216L5.16888 10.544C4.17688 10.4 3.34488 10.136 2.67288 9.752C2.00088 9.352 1.49688 8.832 1.16088 8.192C0.824875 7.552 0.656875 6.8 0.656875 5.936C0.656875 5.296 0.792875 4.664 1.06488 4.04C1.33688 3.416 1.77688 2.856 2.38488 2.36C2.99288 1.848 3.79288 1.44 4.78488 1.136C5.77688 0.832 7.00088 0.68 8.45688 0.68C10.1689 0.68 11.5769 0.92 12.6809 1.4C13.8009 1.864 14.6329 2.536 15.1769 3.416C15.7369 4.28 16.0169 5.312 16.0169 6.512V6.656H11.5049V6.296C11.5049 5.912 11.4169 5.608 11.2409 5.384C11.0809 5.16 10.7449 5 10.2329 4.904C9.73688 4.808 8.98488 4.76 7.97688 4.76C7.20888 4.76 6.62488 4.8 6.22488 4.88C5.82488 4.944 5.54488 5.048 5.38488 5.192C5.24088 5.336 5.16888 5.528 5.16888 5.768C5.16888 5.928 5.20088 6.072 5.26488 6.2C5.34488 6.312 5.46488 6.4 5.62488 6.464C5.80088 6.528 6.03288 6.584 6.32088 6.632L11.3609 7.376C12.6729 7.568 13.6889 7.904 14.4089 8.384C15.1289 8.848 15.6329 9.4 15.9209 10.04C16.2089 10.68 16.3529 11.344 16.3529 12.032C16.3529 12.944 16.0969 13.8 15.5849 14.6C15.0889 15.384 14.2889 16.024 13.1849 16.52C12.0809 17 10.6249 17.24 8.81688 17.24Z" fill="#AD46FF"/>
</svg>
