<svg width="155" height="22" viewBox="0 0 155 22" fill="none" xmlns="http://www.w3.org/2000/svg">
<path d="M8.60594 17.24C6.97394 17.24 5.56594 17.04 4.38194 16.64C3.19794 16.224 2.28594 15.592 1.64594 14.744C1.00594 13.88 0.685938 12.768 0.685938 11.408V11.264H5.19794V11.768C5.19794 12.12 5.26994 12.4 5.41394 12.608C5.57394 12.8 5.89394 12.936 6.37394 13.016C6.85394 13.096 7.59794 13.136 8.60594 13.136C9.51794 13.136 10.1899 13.112 10.6219 13.064C11.0539 13 11.3259 12.904 11.4379 12.776C11.5659 12.632 11.6299 12.44 11.6299 12.2C11.6299 11.912 11.5179 11.696 11.2939 11.552C11.0859 11.408 10.6539 11.296 9.99794 11.216L4.95794 10.544C3.96594 10.4 3.13394 10.136 2.46194 9.752C1.78994 9.352 1.28594 8.832 0.949938 8.192C0.613938 7.552 0.445938 6.8 0.445938 5.936C0.445938 5.296 0.581938 4.664 0.853938 4.04C1.12594 3.416 1.56594 2.856 2.17394 2.36C2.78194 1.848 3.58194 1.44 4.57394 1.136C5.56594 0.832 6.78994 0.68 8.24594 0.68C9.95794 0.68 11.3659 0.92 12.4699 1.4C13.5899 1.864 14.4219 2.536 14.9659 3.416C15.5259 4.28 15.8059 5.312 15.8059 6.512V6.656H11.2939V6.296C11.2939 5.912 11.2059 5.608 11.0299 5.384C10.8699 5.16 10.5339 5 10.0219 4.904C9.52594 4.808 8.77394 4.76 7.76594 4.76C6.99794 4.76 6.41394 4.8 6.01394 4.88C5.61394 4.944 5.33394 5.048 5.17394 5.192C5.02994 5.336 4.95794 5.528 4.95794 5.768C4.95794 5.928 4.98994 6.072 5.05394 6.2C5.13394 6.312 5.25394 6.4 5.41394 6.464C5.58994 6.528 5.82194 6.584 6.10994 6.632L11.1499 7.376C12.4619 7.568 13.4779 7.904 14.1979 8.384C14.9179 8.848 15.4219 9.4 15.7099 10.04C15.9979 10.68 16.1419 11.344 16.1419 12.032C16.1419 12.944 15.8859 13.8 15.3739 14.6C14.8779 15.384 14.0779 16.024 12.9739 16.52C11.8699 17 10.4139 17.24 8.60594 17.24ZM26.2602 17H23.0922C21.5882 17 20.4042 16.624 19.5402 15.872C18.6922 15.12 18.2682 13.96 18.2682 12.392V2.816H22.7802V11.744C22.7802 12.224 22.8682 12.544 23.0442 12.704C23.2362 12.864 23.5882 12.944 24.1002 12.944H26.2602V17ZM26.2602 8.6H16.4922V4.904H26.2602V8.6ZM31.8492 17H27.3372V4.904H31.5612V8.36L31.8492 8.48V17ZM31.8492 9.776H31.0092V8.072H31.8012C31.9132 7.4 32.1292 6.808 32.4492 6.296C32.7692 5.784 33.2012 5.384 33.7452 5.096C34.3052 4.808 34.9852 4.664 35.7852 4.664C36.6812 4.664 37.4012 4.848 37.9452 5.216C38.4892 5.568 38.8812 6.056 39.1212 6.68C39.3772 7.304 39.5052 8.024 39.5052 8.84V11.24H34.9932V9.824C34.9932 9.312 34.8812 8.96 34.6572 8.768C34.4332 8.56 34.0252 8.456 33.4332 8.456C32.8252 8.456 32.4092 8.56 32.1852 8.768C31.9612 8.96 31.8492 9.296 31.8492 9.776ZM47.2062 17.24C45.8462 17.24 44.6382 17.032 43.5822 16.616C42.5262 16.2 41.7022 15.528 41.1102 14.6C40.5182 13.672 40.2222 12.456 40.2222 10.952C40.2222 9.64 40.5182 8.52 41.1102 7.592C41.7022 6.648 42.5102 5.928 43.5342 5.432C44.5742 4.92 45.7662 4.664 47.1102 4.664C48.5022 4.664 49.7102 4.896 50.7342 5.36C51.7582 5.808 52.5502 6.48 53.1102 7.376C53.6702 8.256 53.9502 9.344 53.9502 10.64C53.9502 10.848 53.9422 11.04 53.9262 11.216C53.9262 11.376 53.9102 11.568 53.8782 11.792H43.1742V9.512H50.6142L49.6302 10.928C49.6302 10.784 49.6302 10.648 49.6302 10.52C49.6302 10.376 49.6302 10.232 49.6302 10.088C49.6302 9.352 49.4382 8.84 49.0542 8.552C48.6862 8.264 48.0062 8.12 47.0142 8.12C45.9902 8.12 45.2942 8.28 44.9262 8.6C44.5742 8.92 44.3982 9.496 44.3982 10.328V11.48C44.3982 12.328 44.5822 12.904 44.9502 13.208C45.3182 13.512 46.0142 13.664 47.0382 13.664C47.9502 13.664 48.5582 13.584 48.8622 13.424C49.1822 13.248 49.3422 12.984 49.3422 12.632V12.368H53.8542V12.656C53.8542 13.552 53.5822 14.344 53.0382 15.032C52.4942 15.72 51.7262 16.264 50.7342 16.664C49.7422 17.048 48.5662 17.24 47.2062 17.24ZM68.0935 17H63.8695V14.312H63.6295V10.016C63.6295 9.408 63.4695 9.024 63.1495 8.864C62.8455 8.688 62.2935 8.6 61.4935 8.6C60.7575 8.6 60.2455 8.688 59.9575 8.864C59.6855 9.04 59.5495 9.384 59.5495 9.896V9.992H55.0375V9.944C55.0375 8.872 55.3175 7.944 55.8775 7.16C56.4375 6.36 57.2295 5.744 58.2535 5.312C59.2775 4.88 60.4695 4.664 61.8295 4.664C63.2375 4.664 64.4055 4.888 65.3335 5.336C66.2615 5.768 66.9495 6.392 67.3975 7.208C67.8615 8.008 68.0935 8.976 68.0935 10.112V17ZM59.0695 17.24C57.7095 17.24 56.6535 16.944 55.9015 16.352C55.1655 15.76 54.7975 14.952 54.7975 13.928C54.7975 13.352 54.9335 12.84 55.2055 12.392C55.4775 11.944 55.9015 11.584 56.4775 11.312C57.0535 11.024 57.7975 10.832 58.7095 10.736L63.8695 10.232V12.728L59.9095 13.184C59.7015 13.2 59.5495 13.248 59.4535 13.328C59.3735 13.408 59.3335 13.512 59.3335 13.64C59.3335 13.832 59.4215 13.96 59.5975 14.024C59.7895 14.072 60.0615 14.096 60.4135 14.096C61.2135 14.096 61.8455 14.056 62.3095 13.976C62.7735 13.88 63.1095 13.712 63.3175 13.472C63.5255 13.232 63.6295 12.888 63.6295 12.44L63.9655 12.344V14.456H63.6295C63.4055 15.304 62.9175 15.984 62.1655 16.496C61.4135 16.992 60.3815 17.24 59.0695 17.24ZM92.1349 17H87.6229V10.904C87.6229 10.056 87.4629 9.48 87.1429 9.176C86.8389 8.856 86.2149 8.696 85.2709 8.696C84.3429 8.696 83.7349 8.848 83.4469 9.152C83.1749 9.44 83.0389 9.976 83.0389 10.76H82.5829L82.1989 8.576H83.0149C83.1109 7.904 83.3109 7.272 83.6149 6.68C83.9349 6.088 84.4149 5.608 85.0549 5.24C85.6949 4.856 86.5349 4.664 87.5749 4.664C88.6149 4.664 89.4709 4.864 90.1429 5.264C90.8149 5.664 91.3109 6.208 91.6309 6.896C91.9669 7.584 92.1349 8.368 92.1349 9.248V17ZM73.9429 17H69.4309V4.904H73.6549V8.624L73.9429 8.744V17ZM83.0389 17H78.5269V10.904C78.5269 10.056 78.3669 9.48 78.0469 9.176C77.7429 8.856 77.1189 8.696 76.1749 8.696C75.2469 8.696 74.6389 8.848 74.3509 9.152C74.0789 9.44 73.9429 9.976 73.9429 10.76H73.4869L73.1029 8.576H73.8949C73.9909 7.904 74.1909 7.272 74.4949 6.68C74.7989 6.088 75.2549 5.608 75.8629 5.24C76.4869 4.856 77.3029 4.664 78.3109 4.664C79.3669 4.664 80.2229 4.872 80.8789 5.288C81.5349 5.704 82.0149 6.264 82.3189 6.968C82.6389 7.656 82.7989 8.416 82.7989 9.248H83.0389V17ZM101.278 17.24C99.6458 17.24 98.2378 17.04 97.0538 16.64C95.8698 16.224 94.9578 15.592 94.3178 14.744C93.6778 13.88 93.3578 12.768 93.3578 11.408V11.264H97.8698V11.768C97.8698 12.12 97.9418 12.4 98.0858 12.608C98.2458 12.8 98.5658 12.936 99.0458 13.016C99.5258 13.096 100.27 13.136 101.278 13.136C102.19 13.136 102.862 13.112 103.294 13.064C103.726 13 103.998 12.904 104.11 12.776C104.238 12.632 104.302 12.44 104.302 12.2C104.302 11.912 104.19 11.696 103.966 11.552C103.758 11.408 103.326 11.296 102.67 11.216L97.6298 10.544C96.6378 10.4 95.8058 10.136 95.1338 9.752C94.4618 9.352 93.9578 8.832 93.6218 8.192C93.2858 7.552 93.1178 6.8 93.1178 5.936C93.1178 5.296 93.2538 4.664 93.5258 4.04C93.7978 3.416 94.2378 2.856 94.8458 2.36C95.4538 1.848 96.2538 1.44 97.2458 1.136C98.2378 0.832 99.4618 0.68 100.918 0.68C102.63 0.68 104.038 0.92 105.142 1.4C106.262 1.864 107.094 2.536 107.638 3.416C108.198 4.28 108.478 5.312 108.478 6.512V6.656H103.966V6.296C103.966 5.912 103.878 5.608 103.702 5.384C103.542 5.16 103.206 5 102.694 4.904C102.198 4.808 101.446 4.76 100.438 4.76C99.6698 4.76 99.0858 4.8 98.6858 4.88C98.2858 4.944 98.0058 5.048 97.8458 5.192C97.7018 5.336 97.6298 5.528 97.6298 5.768C97.6298 5.928 97.6618 6.072 97.7258 6.2C97.8058 6.312 97.9258 6.4 98.0858 6.464C98.2618 6.528 98.4938 6.584 98.7818 6.632L103.822 7.376C105.134 7.568 106.15 7.904 106.87 8.384C107.59 8.848 108.094 9.4 108.382 10.04C108.67 10.68 108.814 11.344 108.814 12.032C108.814 12.944 108.558 13.8 108.046 14.6C107.55 15.384 106.75 16.024 105.646 16.52C104.542 17 103.086 17.24 101.278 17.24ZM112.548 21.08H110.364V17H113.868C114.236 17 114.516 16.952 114.708 16.856C114.9 16.76 115.044 16.592 115.14 16.352L115.476 15.536L115.044 17.552L108.924 4.904H114.06L116.148 9.656L117.012 12.44H117.324L118.116 9.608L119.916 4.904H124.956L119.22 17.48C118.788 18.424 118.276 19.16 117.684 19.688C117.108 20.216 116.404 20.576 115.572 20.768C114.74 20.976 113.732 21.08 112.548 21.08ZM139.535 17H135.023V10.904C135.023 10.056 134.839 9.48 134.471 9.176C134.103 8.856 133.423 8.696 132.431 8.696C131.439 8.696 130.775 8.848 130.439 9.152C130.119 9.44 129.959 9.976 129.959 10.76H129.503L129.119 8.576H129.911C130.007 7.904 130.223 7.272 130.559 6.68C130.911 6.088 131.423 5.608 132.095 5.24C132.783 4.856 133.663 4.664 134.735 4.664C135.823 4.664 136.719 4.864 137.423 5.264C138.143 5.664 138.671 6.208 139.007 6.896C139.359 7.584 139.535 8.368 139.535 9.248V17ZM129.959 17H125.447V4.904H129.671V8.624L129.959 8.744V17ZM147.66 17.24C146.236 17.24 144.996 16.992 143.94 16.496C142.884 15.984 142.068 15.256 141.492 14.312C140.916 13.368 140.628 12.248 140.628 10.952C140.628 9.64 140.916 8.52 141.492 7.592C142.068 6.648 142.884 5.928 143.94 5.432C144.996 4.92 146.236 4.664 147.66 4.664C149.036 4.664 150.228 4.888 151.236 5.336C152.26 5.768 153.044 6.384 153.588 7.184C154.148 7.984 154.428 8.928 154.428 10.016V10.4H149.94V10.208C149.94 9.584 149.724 9.176 149.292 8.984C148.876 8.792 148.3 8.696 147.564 8.696C146.732 8.696 146.116 8.84 145.716 9.128C145.316 9.4 145.116 10.008 145.116 10.952C145.116 11.88 145.316 12.488 145.716 12.776C146.116 13.048 146.732 13.184 147.564 13.184C148.3 13.184 148.876 13.096 149.292 12.92C149.724 12.728 149.94 12.32 149.94 11.696V11.48H154.428V11.888C154.428 12.96 154.148 13.896 153.588 14.696C153.044 15.496 152.26 16.12 151.236 16.568C150.228 17.016 149.036 17.24 147.66 17.24Z" fill="white"/>
</svg>
